<?xml version="1.0" encoding="UTF-8"?> <!-- Creator: CorelDRAW 2017 --> <svg xmlns="http://www.w3.org/2000/svg" xmlns:xlink="http://www.w3.org/1999/xlink" xml:space="preserve" width="320px" height="110px" style="shape-rendering:geometricPrecision; text-rendering:geometricPrecision; image-rendering:optimizeQuality; fill-rule:evenodd; clip-rule:evenodd" viewBox="0 0 320 110"> <defs> <style type="text/css"> <![CDATA[ .fil0 {fill:#1F365C} .fil1 {fill:#1F365C;fill-rule:nonzero} ]]> </style> </defs> <g id="Слой_x0020_1"> <metadata id="CorelCorpID_0Corel-Layer"></metadata> <path class="fil0" d="M97.32 85.74l7.17 -17.84c3.12,0 5.79,-0.28 8.01,-0.85 2.23,-0.57 3.66,-1.65 4.3,-3.24 0.5,-1.25 0.04,-2.29 -1.38,-3.12 -1.42,-0.82 -3.93,-1.24 -7.54,-1.24l-5.7 0 -17.51 43.61 -32.88 0 24.69 -61.44 39.15 0c3.54,0 6.86,0.14 9.98,0.43l0.11 -0.28 32.87 0 -8.85 22.02 21.63 0 8.84 -22.02 5.38 0 0.03 -0.07 82.06 0 -0.03 0.07 49.03 0 -7.06 17.58 -46.9 0 -10.56 26.29 5.26 0c3.31,0 6,-0.1 8.08,-0.3 2.08,-0.2 3.75,-0.49 5.02,-0.86 1.27,-0.37 2.2,-0.81 2.8,-1.32 0.59,-0.51 1.01,-1.08 1.27,-1.71 0.52,-1.3 0.13,-2.39 -1.19,-3.24 -1.31,-0.85 -4.69,-1.28 -10.15,-1.28l-2.33 0 4.38 -10.92 2.34 0c15.97,0 27.29,1.35 33.95,4.05 6.66,2.7 8.73,7.18 6.22,13.44 -2.79,6.94 -8.88,11.96 -18.26,15.06 -9.37,3.1 -21.9,4.65 -37.59,4.65l-31.79 0 0 0.01 -36.48 0 0.01 -0.01 -28.17 0 9.77 -24.32 -21.62 0 -9.77 24.32 -32.88 0 7.18 -17.87c-3.46,0.27 -7.08,0.4 -10.89,0.4zm30.52 -42.96l-16.96 42.2c7.2,-0.87 13.58,-2.37 19.12,-4.51 9.39,-3.61 15.64,-9.28 18.75,-17.02 1.42,-3.53 1.54,-6.63 0.38,-9.3 -1.17,-2.68 -3.35,-4.94 -6.55,-6.79 -3.21,-1.85 -7.32,-3.24 -12.35,-4.18 -0.78,-0.14 -1.58,-0.28 -2.39,-0.4zm135.39 1.03l-74.86 0 -6.08 15.14 22.79 0 -16.94 42.17 29.27 0 16.94 -42.17 22.79 0 6.09 -15.14z"></path> <polygon class="fil0" points="74.25,39.36 74.06,39.16 50.32,98.48 50.72,98.9 74.46,39.58 "></polygon> <polygon class="fil0" points="71.07,36.05 70.82,35.78 45.81,98.26 46.28,98.76 71.29,36.28 "></polygon> <polygon class="fil0" points="67.86,32.7 67.66,32.49 41.71,97.32 42.23,97.86 68.18,33.03 "></polygon> <polygon class="fil0" points="64.71,29.41 64.44,29.13 37.65,96.07 38.19,96.63 64.98,29.7 "></polygon> <polygon class="fil0" points="61.48,26.04 61.23,25.78 33.71,94.54 34.26,95.12 61.78,26.36 "></polygon> <polygon class="fil0" points="134.31,24.62 134,24.36 61.71,24.36 62.3,24.84 134.58,24.84 "></polygon> <polygon class="fil0" points="132.47,28.31 132.21,28.09 65.21,28.09 65.8,28.6 132.8,28.6 "></polygon> <polygon class="fil0" points="130.98,32.03 130.68,31.74 68.65,31.74 69.23,32.29 131.26,32.29 "></polygon> <polygon class="fil0" points="129.76,35.66 129.5,35.4 72.09,35.4 72.7,36.01 130.11,36.01 "></polygon> <polygon class="fil0" points="128.47,39.45 128.17,39.13 75.59,39.13 76.13,39.7 128.71,39.7 "></polygon> <path class="fil1" d="M49.79 102.2c-27.34,-0.42 -49.23,-22.96 -48.72,-50.44 0.52,-27.79 23.61,-50.45 51.4,-50.45 16.84,0 32.33,8.54 41.36,22.23l-3.26 0.05c-8.68,-12.12 -22.84,-19.58 -38.15,-19.58 -26.3,0 -48.16,21.45 -48.65,47.75 -0.5,26.35 20.85,47.93 47.19,47.76l-1.17 2.68z"></path> </g> </svg> 